# xmcd
#
# Track frame offsets:
#	150
#	22360
#	43121
#	61467
#	78305
#	98564
#	116833
#	130167
#	145903
#	161505
#	178094
#	197552
#	216749
#	234523
#	253538
#	270776
#
# Disc length: 3904 seconds
#
# Revision: 0
# Processed by: cddbd v1.4PL0 Copyright (c) Steve Scherf et al.
# Submitted via: EasyCDDAExtractor 4.6.0.1
#
DISCID=e70f3e10
DTITLE=LeAnn Rimes - Sittin' On Top Of The World
DYEAR=2000
DGENRE=
TTITLE0=How Do I Live
TTITLE1=Commitment
TTITLE2=Looking Through Your Eyes
TTITLE3=Undeniable
TTITLE4=Feels Like Home
TTITLE5=Surrender
TTITLE6=These Arms Of Mine
TTITLE7=Nothin' New Under The Moon
TTITLE8=When Am I Gonna Get Over You
TTITLE9=Rock Me
TTITLE10=More Than Anyone Deserves
TTITLE11=Insensitive
TTITLE12=All The Lovin' And Hurtin'
TTITLE13=Sittin' On Top Of The World
TTITLE14=The Heart Never Forgets
TTITLE15=Purple Rain
EXTD=
EXTT0=
EXTT1=
EXTT2=
EXTT3=
EXTT4=
EXTT5=
EXTT6=
EXTT7=
EXTT8=
EXTT9=
EXTT10=
EXTT11=
EXTT12=
EXTT13=
EXTT14=
EXTT15=
PLAYORDER=
